<svg xmlns="http://www.w3.org/2000/svg" width="20" height="20" viewBox="0 0 20 20">
  <g id="bt_alert_off" transform="translate(-292 -18)">
    <rect id="사각형_2583" data-name="사각형 2583" width="20" height="20" rx="5" transform="translate(292 18)" fill="#464951"/>
    <g id="그룹_5078" data-name="그룹 5078" transform="translate(-9.998 -322.871)">
      <path id="패스_43946" data-name="패스 43946" d="M316.5,354.216a.491.491,0,0,0,.273-.063.485.485,0,0,0,.178-.662l-.5-.806a1.277,1.277,0,0,1-.194-.673v-2.949a3.911,3.911,0,0,0-3.464-3.828,4.319,4.319,0,0,0-.516-.029h-.117a4.318,4.318,0,0,0-.516.029,3.91,3.91,0,0,0-3.464,3.829v2.949a1.277,1.277,0,0,1-.194.673l-.5.806a.484.484,0,0,0,.451.725H316.5Z" fill="#73767f"/>
      <path id="패스_43947" data-name="패스 43947" d="M312.429,359.806a1.473,1.473,0,0,0,2.945,0Z" transform="translate(-1.679 -4.899)" fill="#73767f"/>
    </g>
  </g>
</svg>
