<svg xmlns="http://www.w3.org/2000/svg" width="20" height="20" viewBox="0 0 20 20">
  <g id="ic_area" transform="translate(0.233)">
    <rect id="사각형_2518" data-name="사각형 2518" width="20" height="20" transform="translate(-0.233)" fill="none"/>
    <path id="패스_43903" data-name="패스 43903" d="M400.27,256.047v-4h-4v1h-6v-1h-4v4h1v6h-1v4h4v-1h6v1h4v-4h-1v-6Zm-2.8,7.8v-.6h1.6v1.6h-1.6v-1Zm.6-1.8h-1.8v1.8h-6v-1.8h-1.8v-6h1.8v-1.8h6v1.8h1.8Zm-9,2.8h-1.6v-1.6h1.6v1.6Zm-1.6-11.6h1.6v1.6h-1.6Zm10,0h1.6v1.6h-1.6v-1.6Z" transform="translate(-383.503 -249.047)" fill="#d9d9d9"/>
  </g>
</svg>
