<svg xmlns="http://www.w3.org/2000/svg" width="20" height="20" viewBox="0 0 20 20">
  <g id="ic_Analysis" transform="translate(0.172)">
    <rect id="사각형_2518" data-name="사각형 2518" width="20" height="20" rx="5" transform="translate(-0.172)" fill="#5d93ff"/>
    <g id="그룹_5097" data-name="그룹 5097" transform="translate(-345.307 -358.075)">
      <path id="패스_43962" data-name="패스 43962" d="M349.787,372.889V363.98a.638.638,0,0,1,.637-.636h.636v.636a.637.637,0,0,0,.637.637h5.09a.637.637,0,0,0,.637-.637v-.636h.636a.638.638,0,0,1,.637.636v1.909h1.272V363.98a1.911,1.911,0,0,0-1.909-1.909h-.636v-.636a.636.636,0,0,0-.637-.636H351.7a.636.636,0,0,0-.637.636v.636h-.636a1.911,1.911,0,0,0-1.909,1.909v8.909a1.912,1.912,0,0,0,1.909,1.91h2.545v-1.273h-2.545A.638.638,0,0,1,349.787,372.889Zm2.546-10.818h3.818v1.273h-3.818Z" fill="#fff"/>
      <path id="패스_43963" data-name="패스 43963" d="M361.534,374.07l-2.215-2.213a3.781,3.781,0,0,0,.661-2.128,3.819,3.819,0,1,0-3.818,3.818,3.78,3.78,0,0,0,2.089-.637l2.222,2.221a.75.75,0,0,0,1.061-1.061Zm-7.918-4.341a2.546,2.546,0,1,1,2.546,2.545A2.549,2.549,0,0,1,353.616,369.729Z" fill="#fff"/>
    </g>
  </g>
</svg>
