<svg xmlns="http://www.w3.org/2000/svg" width="40" height="40" viewBox="0 0 40 40">
  <g id="ic_antenna_pressed" transform="translate(-1855 -160)">
    <rect id="사각형_2516" data-name="사각형 2516" width="40" height="40" rx="10" transform="translate(1855 160)" fill="#5d93ff"/>
    <g id="그룹_4900" data-name="그룹 4900" transform="translate(1634.268 -84.688)">
      <path id="패스_43891" data-name="패스 43891" d="M242.435,257.729a.75.75,0,0,0,0,1.5,2.751,2.751,0,0,1,2.748,2.748.75.75,0,0,0,1.5,0A4.253,4.253,0,0,0,242.435,257.729Z" fill="#fff"/>
      <path id="패스_43892" data-name="패스 43892" d="M242.435,255.4a.75.75,0,1,0,0,1.5,5.086,5.086,0,0,1,5.08,5.08.75.75,0,0,0,1.5,0A6.588,6.588,0,0,0,242.435,255.4Z" fill="#fff"/>
      <path id="패스_43893" data-name="패스 43893" d="M243.034,262.152a.75.75,0,1,0-1.061-1.061l-1.6,1.6-4.949-4.948-.5.5a7.738,7.738,0,0,0-.92,9.83l-1.554,5.9h7.988l-2.249-2.848a7.757,7.757,0,0,0,7.673-1.948l.5-.5-4.928-4.929Zm-8.761,10.42.816-3.1,2.446,3.1Zm1.645-4.385a6.517,6.517,0,0,1-.6-.694,6.341,6.341,0,0,1,.131-7.73l8.894,8.894A6.336,6.336,0,0,1,235.918,268.187Z" fill="#fff"/>
    </g>
  </g>
</svg>
