<svg xmlns="http://www.w3.org/2000/svg" width="20" height="20" viewBox="0 0 20 20">
  <g id="ic_alert" transform="translate(-1466.5 -132)">
    <circle id="타원_227" data-name="타원 227" cx="10" cy="10" r="10" transform="translate(1466.5 132)" fill="#fff4b2"/>
    <g id="그룹_5077" data-name="그룹 5077" transform="translate(1164.851 -208.108)">
      <path id="패스_43946" data-name="패스 43946" d="M315.419,353.139a.432.432,0,0,0,.24-.056.427.427,0,0,0,.157-.583l-.441-.71a1.124,1.124,0,0,1-.171-.593v-2.6a3.444,3.444,0,0,0-3.05-3.371,3.8,3.8,0,0,0-.454-.025h-.1a3.8,3.8,0,0,0-.454.025,3.443,3.443,0,0,0-3.05,3.371v2.6a1.124,1.124,0,0,1-.171.593l-.441.71a.426.426,0,0,0,.4.638h7.54Z" fill="#282b32"/>
      <path id="패스_43947" data-name="패스 43947" d="M312.429,359.806a1.3,1.3,0,0,0,2.593,0Z" transform="translate(-2.077 -6.059)" fill="#282b32"/>
    </g>
  </g>
</svg>
