<svg xmlns="http://www.w3.org/2000/svg" xmlns:xlink="http://www.w3.org/1999/xlink" width="61" height="61" viewBox="0 0 61 61">
  <defs>
    <filter id="사각형_1701" x="0" y="0" width="61" height="61" filterUnits="userSpaceOnUse">
      <feOffset dx="3" dy="3" input="SourceAlpha"/>
      <feGaussianBlur stdDeviation="4" result="blur"/>
      <feFlood flood-opacity="0.161"/>
      <feComposite operator="in" in2="blur"/>
    </filter>
  </defs>
  <g id="ic_compass" transform="translate(-1530 -155)">
    <g transform="matrix(1, 0, 0, 1, 1530, 155)" filter="url(#사각형_1701)">
      <rect id="사각형_1701-2" data-name="사각형 1701" width="37" height="37" rx="4" transform="translate(9 9)" fill="#fff"/>
    </g>
    <g id="ic_n" transform="translate(-693.918 -1391.862)">
      <path id="패스_43860" data-name="패스 43860" d="M2257.8,1587.76l-.005,0a.425.425,0,0,1-.442.062l-5.938-2.6-5.938,2.6a.425.425,0,0,1-.442-.062.323.323,0,0,1-.086-.393l6.11-12.3a.411.411,0,0,1,.714,0l6.11,12.3A.322.322,0,0,1,2257.8,1587.76Z" transform="translate(0)" fill="#73767f"/>
      <text id="N" transform="translate(2246.918 1571.862)" fill="#d9d9d9" font-size="13" font-family="Pretendard-SemiBold, Pretendard" font-weight="600"><tspan x="0" y="0">N</tspan></text>
    </g>
  </g>
</svg>
