<svg xmlns="http://www.w3.org/2000/svg" width="40" height="40" viewBox="0 0 40 40">
  <g id="ic_corridor" transform="translate(-1855 -160)">
    <rect id="사각형_2516" data-name="사각형 2516" width="40" height="40" rx="10" transform="translate(1855 160)" fill="#1b1c1f"/>
    <g id="그룹_4892" data-name="그룹 4892" transform="translate(565.801 -1903.814)">
      <g id="그룹_4889" data-name="그룹 4889" transform="translate(1301.199 2072.814)">
        <path id="패스_43881" data-name="패스 43881" d="M1304.079,2078.573a2.879,2.879,0,1,1,2.879-2.879A2.882,2.882,0,0,1,1304.079,2078.573Zm0-4.519a1.64,1.64,0,1,0,1.639,1.64A1.642,1.642,0,0,0,1304.079,2074.054Z" transform="translate(-1301.199 -2072.814)" fill="#d9d9d9" stroke="#d9d9d9" stroke-width="0.2"/>
      </g>
      <g id="그룹_4890" data-name="그룹 4890" transform="translate(1301.382 2075.015)">
        <path id="패스_43882" data-name="패스 43882" d="M1314.747,2096.015h-8.55a4.476,4.476,0,1,1,0-8.952h7.168a3.24,3.24,0,0,0,3.236-3.236v-.271a3.24,3.24,0,0,0-3.236-3.237h-3.618a.62.62,0,0,1,0-1.24h3.618a4.482,4.482,0,0,1,4.476,4.476v.271a4.482,4.482,0,0,1-4.476,4.476H1306.2a3.236,3.236,0,0,0,0,6.473h8.55a.62.62,0,0,1,0,1.24Z" transform="translate(-1301.721 -2079.079)" fill="#d9d9d9" stroke="#d9d9d9" stroke-width="0.2"/>
      </g>
      <g id="그룹_4891" data-name="그룹 4891" transform="translate(1312.174 2088.313)">
        <path id="패스_43883" data-name="패스 43883" d="M1333.055,2122.874a.62.62,0,0,1-.438-1.058l1.915-1.915-1.915-1.915a.62.62,0,0,1,.877-.876l2.354,2.353a.62.62,0,0,1,0,.877l-2.354,2.354A.617.617,0,0,1,1333.055,2122.874Z" transform="translate(-1332.435 -2116.927)" fill="#d9d9d9" stroke="#d9d9d9" stroke-width="0.2"/>
      </g>
    </g>
  </g>
</svg>
