<svg xmlns="http://www.w3.org/2000/svg" width="20" height="20" viewBox="0 0 20 20">
  <g id="ic_delete" transform="translate(-292 -18)">
    <rect id="사각형_2583" data-name="사각형 2583" width="20" height="20" rx="5" transform="translate(292 18)" fill="#464951"/>
    <g id="trash-2" transform="translate(293 20)">
      <path id="패스_38115" data-name="패스 38115" d="M3,6H15" transform="translate(0 -1.333)" fill="none" stroke="#fff" stroke-linecap="round" stroke-linejoin="round" stroke-width="1.2"/>
      <path id="패스_38116" data-name="패스 38116" d="M14.333,4.6v9.1A1.317,1.317,0,0,1,13,15H6.333A1.317,1.317,0,0,1,5,13.7V4.6m2,0V3.3A1.317,1.317,0,0,1,8.333,2H11a1.317,1.317,0,0,1,1.333,1.3V4.6" transform="translate(-0.667)" fill="none" stroke="#fff" stroke-linecap="round" stroke-linejoin="round" stroke-width="1.2"/>
      <line id="선_599" data-name="선 599" y2="4" transform="translate(8 7.464)" fill="none" stroke="#fff" stroke-linecap="round" stroke-linejoin="round" stroke-width="1.2"/>
      <line id="선_600" data-name="선 600" y2="4" transform="translate(10 7.464)" fill="none" stroke="#fff" stroke-linecap="round" stroke-linejoin="round" stroke-width="1.2"/>
    </g>
  </g>
</svg>
