<svg xmlns="http://www.w3.org/2000/svg" width="20" height="20" viewBox="0 0 20 20">
  <g id="ic_drawing" transform="translate(0.233)">
    <rect id="사각형_2518" data-name="사각형 2518" width="20" height="20" transform="translate(-0.233)" fill="none"/>
    <g id="그룹_4910" data-name="그룹 4910" transform="translate(-2357.399 -984.233)">
      <g id="그룹_4907" data-name="그룹 4907" transform="translate(2360.33 987.397)">
        <g id="패스_43904" data-name="패스 43904" transform="translate(-2360.33 -987.397)" fill="#d9d9d9">
          <path d="M 2360.719970703125 1001.168334960938 C 2360.589111328125 1001.168334960938 2360.466064453125 1001.117370605469 2360.373291015625 1001.024780273438 C 2360.234375 1000.88623046875 2360.191650390625 1000.6787109375 2360.2646484375 1000.496154785156 L 2364.219482421875 990.552978515625 C 2364.288818359375 990.3794555664062 2364.453857421875 990.2586059570312 2364.639892578125 990.2451171875 L 2367.885986328125 990.0054321289062 L 2370.45068359375 987.4408569335938 C 2370.543701171875 987.3482055664062 2370.666748046875 987.2971801757812 2370.7978515625 987.2971801757812 C 2370.928955078125 987.2971801757812 2371.052001953125 987.3482055664062 2371.144775390625 987.4407958984375 L 2373.957275390625 990.2533569335938 C 2374.1484375 990.4445190429688 2374.1484375 990.7557983398438 2373.957275390625 990.947265625 L 2371.392333984375 993.511962890625 L 2371.15283203125 996.7581176757812 C 2371.139404296875 996.94384765625 2371.0185546875 997.1087036132812 2370.84521484375 997.1778564453125 L 2360.90185546875 1001.133544921875 C 2360.84375 1001.156677246094 2360.782470703125 1001.168334960938 2360.719970703125 1001.168334960938 Z M 2365.018310546875 991.2013549804688 L 2361.597412109375 999.8006591796875 L 2370.196533203125 996.3795776367188 L 2370.427001953125 993.2578735351562 C 2370.43505859375 993.140869140625 2370.48583984375 993.0302734375 2370.56982421875 992.94677734375 L 2372.916259765625 990.6002197265625 L 2370.798095703125 988.4818725585938 L 2368.451171875 990.8283081054688 C 2368.367919921875 990.9116821289062 2368.25732421875 990.96240234375 2368.139892578125 990.970947265625 L 2365.018310546875 991.2013549804688 Z" stroke="none"/>
          <path d="M 2360.719970703125 1001.068359375 C 2360.768798828125 1001.068359375 2360.81787109375 1001.059326171875 2360.864990234375 1001.040649414062 L 2370.80810546875 997.0849609375 C 2370.94677734375 997.0296630859375 2371.042236328125 996.8997802734375 2371.052978515625 996.750732421875 L 2371.29541015625 993.467529296875 L 2373.886474609375 990.8765869140625 C 2374.0390625 990.7237548828125 2374.0390625 990.4766845703125 2373.886474609375 990.3240966796875 L 2371.07421875 987.5115966796875 C 2370.9208984375 987.3587646484375 2370.674072265625 987.359130859375 2370.521484375 987.5115966796875 L 2367.930419921875 990.1024169921875 L 2364.647216796875 990.3448486328125 C 2364.49755859375 990.355712890625 2364.367919921875 990.451171875 2364.3125 990.5899658203125 L 2360.357421875 1000.533203125 C 2360.299560546875 1000.67822265625 2360.333251953125 1000.843627929688 2360.44384765625 1000.953979492188 C 2360.518798828125 1001.02880859375 2360.618408203125 1001.068359375 2360.719970703125 1001.068359375 M 2370.798095703125 988.3404541015625 L 2373.0576171875 990.6002197265625 L 2370.640380859375 993.0177001953125 C 2370.57373046875 993.083984375 2370.533203125 993.1719970703125 2370.526611328125 993.2652587890625 L 2370.291748046875 996.4493408203125 L 2361.418701171875 999.9793701171875 L 2364.948486328125 991.106201171875 L 2368.132568359375 990.8712158203125 C 2368.22607421875 990.8643798828125 2368.31396484375 990.8240966796875 2368.38037109375 990.757568359375 L 2370.798095703125 988.3404541015625 M 2360.719970703125 1001.268371582031 C 2360.5625 1001.268371582031 2360.414306640625 1001.206970214844 2360.302490234375 1001.095520019531 C 2360.13525390625 1000.9287109375 2360.083984375 1000.678894042969 2360.171630859375 1000.459106445312 L 2364.126708984375 990.5160522460938 C 2364.210205078125 990.3070678710938 2364.40869140625 990.16162109375 2364.6328125 990.1453857421875 L 2367.841552734375 989.908447265625 L 2370.380126953125 987.3701782226562 C 2370.491943359375 987.258544921875 2370.64013671875 987.1971435546875 2370.7978515625 987.1971435546875 C 2370.95556640625 987.1971435546875 2371.103759765625 987.258544921875 2371.215576171875 987.3700561523438 L 2374.02783203125 990.1826782226562 C 2374.258056640625 990.4127807617188 2374.258056640625 990.7874755859375 2374.028076171875 991.0178833007812 L 2371.489501953125 993.556396484375 L 2371.25244140625 996.7654418945312 C 2371.236328125 996.989013671875 2371.091064453125 997.1875 2370.882080078125 997.270751953125 L 2360.93896484375 1001.226501464844 C 2360.86865234375 1001.254333496094 2360.795166015625 1001.268371582031 2360.719970703125 1001.268371582031 Z M 2365.088134765625 991.2964477539062 L 2361.776123046875 999.6219482421875 L 2370.1015625 996.309814453125 L 2370.3271484375 993.2505493164062 C 2370.337158203125 993.1096801757812 2370.398193359375 992.9763793945312 2370.499267578125 992.8759155273438 L 2372.77490234375 990.6002197265625 L 2370.798095703125 988.623291015625 L 2368.521728515625 990.8989868164062 C 2368.421630859375 990.9993286132812 2368.28857421875 991.0603637695312 2368.147216796875 991.0706787109375 L 2365.088134765625 991.2964477539062 Z" stroke="none" fill="#d9d9d9"/>
        </g>
      </g>
      <g id="그룹_4908" data-name="그룹 4908" transform="translate(2360.33 994.638)">
        <g id="패스_43905" data-name="패스 43905" transform="translate(-2360.331 -1020.098)" fill="#d9d9d9">
          <path d="M 2360.7216796875 1026.628540039062 C 2360.59033203125 1026.628540039062 2360.467041015625 1026.577392578125 2360.37451171875 1026.484619140625 C 2360.18359375 1026.29345703125 2360.18359375 1025.982177734375 2360.37451171875 1025.790893554688 L 2366.0234375 1020.142333984375 C 2366.1162109375 1020.049560546875 2366.239501953125 1019.998474121094 2366.37060546875 1019.998474121094 C 2366.501708984375 1019.998474121094 2366.625 1020.049560546875 2366.7177734375 1020.142333984375 C 2366.90869140625 1020.333679199219 2366.90869140625 1020.644836425781 2366.7177734375 1020.836120605469 L 2361.06884765625 1026.484741210938 C 2360.9755859375 1026.577514648438 2360.8525390625 1026.628540039062 2360.7216796875 1026.628540039062 Z" stroke="none"/>
          <path d="M 2360.7216796875 1026.528564453125 C 2360.82177734375 1026.528564453125 2360.92138671875 1026.490478515625 2360.998046875 1026.4140625 L 2366.64697265625 1020.765441894531 C 2366.79931640625 1020.612976074219 2366.79931640625 1020.365539550781 2366.64697265625 1020.213073730469 C 2366.494140625 1020.060363769531 2366.2470703125 1020.059997558594 2366.09423828125 1020.213073730469 L 2360.4453125 1025.861572265625 C 2360.29296875 1026.01416015625 2360.29296875 1026.261474609375 2360.4453125 1026.4140625 C 2360.521484375 1026.490478515625 2360.62158203125 1026.528564453125 2360.7216796875 1026.528564453125 M 2360.7216796875 1026.728515625 C 2360.5634765625 1026.728515625 2360.4150390625 1026.6669921875 2360.3037109375 1026.555297851562 C 2360.073974609375 1026.325073242188 2360.073974609375 1025.950561523438 2360.3037109375 1025.72021484375 L 2365.952880859375 1020.071655273438 C 2366.064453125 1019.9599609375 2366.212890625 1019.8984375 2366.37060546875 1019.8984375 C 2366.5283203125 1019.8984375 2366.6767578125 1019.9599609375 2366.788330078125 1020.071655273438 C 2367.0185546875 1020.301940917969 2367.0185546875 1020.676574707031 2366.78857421875 1020.906799316406 L 2361.139404296875 1026.555541992188 C 2361.02734375 1026.667114257812 2360.879150390625 1026.728515625 2360.7216796875 1026.728515625 Z" stroke="none" fill="#d9d9d9"/>
        </g>
      </g>
      <g id="그룹_4909" data-name="그룹 4909" transform="translate(2365.74 992.756)">
        <g id="패스_43906" data-name="패스 43906" transform="translate(-2384.764 -1011.596)" fill="#d9d9d9">
          <path d="M 2386.215087890625 1014.5986328125 C 2385.359619140625 1014.5986328125 2384.66357421875 1013.902709960938 2384.66357421875 1013.047241210938 C 2384.66357421875 1012.191833496094 2385.359619140625 1011.495971679688 2386.215087890625 1011.495971679688 C 2387.0703125 1011.495971679688 2387.766357421875 1012.191833496094 2387.766357421875 1013.047241210938 C 2387.766357421875 1013.902709960938 2387.0703125 1014.5986328125 2386.215087890625 1014.5986328125 Z M 2386.215087890625 1012.477294921875 C 2385.90087890625 1012.477294921875 2385.6455078125 1012.732971191406 2385.6455078125 1013.047241210938 C 2385.6455078125 1013.361572265625 2385.90087890625 1013.617309570312 2386.215087890625 1013.617309570312 C 2386.529296875 1013.617309570312 2386.78466796875 1013.361572265625 2386.78466796875 1013.047241210938 C 2386.78466796875 1012.732971191406 2386.529296875 1012.477294921875 2386.215087890625 1012.477294921875 Z" stroke="none"/>
          <path d="M 2386.215087890625 1014.498657226562 C 2387.015380859375 1014.498657226562 2387.666259765625 1013.847534179688 2387.666259765625 1013.047241210938 C 2387.666259765625 1012.246948242188 2387.015380859375 1011.595947265625 2386.215087890625 1011.595947265625 C 2385.414794921875 1011.595947265625 2384.763671875 1012.246948242188 2384.763671875 1013.047241210938 C 2384.763671875 1013.847534179688 2385.414794921875 1014.498657226562 2386.215087890625 1014.498657226562 M 2386.215087890625 1012.377319335938 C 2386.584716796875 1012.377319335938 2386.884765625 1012.677856445312 2386.884765625 1013.047241210938 C 2386.884765625 1013.416625976562 2386.584716796875 1013.71728515625 2386.215087890625 1013.71728515625 C 2385.845947265625 1013.71728515625 2385.54541015625 1013.416625976562 2385.54541015625 1013.047241210938 C 2385.54541015625 1012.677856445312 2385.845947265625 1012.377319335938 2386.215087890625 1012.377319335938 M 2386.215087890625 1014.698669433594 C 2385.304443359375 1014.698669433594 2384.563720703125 1013.957824707031 2384.563720703125 1013.047241210938 C 2384.563720703125 1012.13671875 2385.304443359375 1011.395935058594 2386.215087890625 1011.395935058594 C 2387.12548828125 1011.395935058594 2387.8662109375 1012.13671875 2387.8662109375 1013.047241210938 C 2387.8662109375 1013.957824707031 2387.12548828125 1014.698669433594 2386.215087890625 1014.698669433594 Z M 2386.215087890625 1012.577331542969 C 2385.9560546875 1012.577331542969 2385.745361328125 1012.788146972656 2385.745361328125 1013.047241210938 C 2385.745361328125 1013.306396484375 2385.9560546875 1013.517272949219 2386.215087890625 1013.517272949219 C 2386.47412109375 1013.517272949219 2386.684814453125 1013.306396484375 2386.684814453125 1013.047241210938 C 2386.684814453125 1012.788146972656 2386.47412109375 1012.577331542969 2386.215087890625 1012.577331542969 Z" stroke="none" fill="#d9d9d9"/>
        </g>
      </g>
    </g>
  </g>
</svg>
