<svg xmlns="http://www.w3.org/2000/svg" width="20" height="20" viewBox="0 0 20 20">
  <g id="ic_Emergency" transform="translate(-292 -18)">
    <rect id="사각형_2583" data-name="사각형 2583" width="20" height="20" rx="5" transform="translate(292 18)" fill="#464951"/>
    <path id="빼기_1" data-name="빼기 1" d="M12920.26,6734h-10.52a1,1,0,0,1-.862-1.5l5.256-9.015a1,1,0,0,1,1.729,0l5.261,9.015a1,1,0,0,1-.863,1.5Zm-5.27-3.5a1,1,0,0,0,0,2h.007a1,1,0,0,0,0-2Zm.007-4.906a1,1,0,0,0-1,1V6729a1,1,0,1,0,2,0v-2.413A1,1,0,0,0,12915,6725.592Z" transform="translate(-12613 -6701)" fill="#fff"/>
  </g>
</svg>
