<svg xmlns="http://www.w3.org/2000/svg" width="40" height="40" viewBox="0 0 40 40">
  <g id="ic_filter" transform="translate(-1855 -160)">
    <rect id="사각형_2516" data-name="사각형 2516" width="40" height="40" rx="10" transform="translate(1855 160)" fill="#1b1c1f"/>
    <g id="ic_filter-2" data-name="ic_filter" transform="translate(-65.056 -817.956)">
      <g id="패스_43880" data-name="패스 43880" fill="#d9d9d9">
        <path d="M 1938.498901367188 1006.056030273438 C 1938.383178710938 1006.056030273438 1938.270751953125 1006.021850585938 1938.173706054688 1005.957092285156 C 1938.006958007812 1005.845764160156 1937.907348632812 1005.658569335938 1937.907348632812 1005.456298828125 L 1937.907348632812 999.9819946289062 L 1932.068725585938 991.8068237304688 C 1931.937744140625 991.6238403320312 1931.919311523438 991.3849487304688 1932.020751953125 991.183349609375 C 1932.122192382812 990.9814453125 1932.32421875 990.8560180664062 1932.5478515625 990.8560180664062 L 1948.564819335938 990.8560180664062 C 1948.788452148438 990.8560180664062 1948.990478515625 990.9814453125 1949.091918945312 991.1834716796875 C 1949.192993164062 991.3849487304688 1949.174682617188 991.6238403320312 1949.0439453125 991.8068237304688 L 1943.205322265625 999.9819946289062 L 1943.205322265625 1003.6416015625 C 1943.205322265625 1003.880798339844 1943.065551757812 1004.096618652344 1942.849243164062 1004.191467285156 L 1938.734985351562 1006.006164550781 C 1938.661499023438 1006.038757324219 1938.579833984375 1006.056030273438 1938.498901367188 1006.056030273438 Z M 1933.705932617188 992.0550537109375 L 1938.97802734375 999.43603515625 C 1939.051391601562 999.5389404296875 1939.090209960938 999.6604614257812 1939.090209960938 999.7874755859375 L 1939.090209960938 1004.541564941406 L 1942.022705078125 1003.24853515625 L 1942.022705078125 999.7874755859375 C 1942.022705078125 999.6602783203125 1942.061401367188 999.5387573242188 1942.134643554688 999.43603515625 L 1947.406494140625 992.0550537109375 L 1933.705932617188 992.0550537109375 Z" stroke="none"/>
        <path d="M 1938.498901367188 1005.9560546875 C 1938.565307617188 1005.9560546875 1938.632202148438 1005.9423828125 1938.694580078125 1005.914672851562 L 1942.80908203125 1004.099853515625 C 1942.9892578125 1004.020874023438 1943.105346679688 1003.840454101562 1943.105346679688 1003.6416015625 L 1943.105346679688 999.949951171875 L 1948.962524414062 991.7487182617188 C 1949.070922851562 991.5969848632812 1949.086669921875 991.3959350585938 1949.002563476562 991.2283325195312 C 1948.918701171875 991.0614013671875 1948.749389648438 990.9559936523438 1948.564819335938 990.9559936523438 L 1932.5478515625 990.9559936523438 C 1932.36328125 990.9559936523438 1932.193969726562 991.0614013671875 1932.110107421875 991.2283325195312 C 1932.025756835938 991.3959350585938 1932.04150390625 991.5969848632812 1932.150146484375 991.7487182617188 L 1938.00732421875 999.949951171875 L 1938.00732421875 1005.456298828125 C 1938.00732421875 1005.625 1938.090942382812 1005.781616210938 1938.229248046875 1005.873901367188 C 1938.310668945312 1005.92822265625 1938.404541015625 1005.9560546875 1938.498901367188 1005.9560546875 M 1933.511596679688 991.955078125 L 1947.600830078125 991.955078125 L 1942.216064453125 999.494140625 C 1942.1552734375 999.579345703125 1942.122680664062 999.6821899414062 1942.122680664062 999.7874755859375 L 1942.122680664062 1003.313720703125 L 1938.990234375 1004.694946289062 L 1938.990234375 999.7874755859375 C 1938.990234375 999.6821899414062 1938.957397460938 999.579345703125 1938.896606445312 999.494140625 L 1933.511596679688 991.955078125 M 1938.498901367188 1006.156066894531 C 1938.363403320312 1006.156066894531 1938.231811523438 1006.116027832031 1938.118286132812 1006.040283203125 C 1937.923583984375 1005.910339355469 1937.807373046875 1005.692077636719 1937.807373046875 1005.456298828125 L 1937.807373046875 1000.014038085938 L 1931.987426757812 991.8649291992188 C 1931.834716796875 991.6517333984375 1931.813232421875 991.373291015625 1931.931518554688 991.138427734375 C 1932.049926757812 990.902587890625 1932.2861328125 990.7559814453125 1932.5478515625 990.7559814453125 L 1948.564819335938 990.7559814453125 C 1948.826538085938 990.7559814453125 1949.062744140625 990.902587890625 1949.181274414062 991.1385498046875 C 1949.299072265625 991.3733520507812 1949.277587890625 991.6516723632812 1949.125244140625 991.864990234375 L 1943.305297851562 1000.014038085938 L 1943.305297851562 1003.6416015625 C 1943.305297851562 1003.920471191406 1943.14208984375 1004.172241210938 1942.889404296875 1004.283020019531 L 1938.775268554688 1006.09765625 C 1938.688232421875 1006.136352539062 1938.595092773438 1006.156066894531 1938.498901367188 1006.156066894531 Z M 1933.900268554688 992.1550903320312 L 1939.059326171875 999.3778686523438 C 1939.14501953125 999.4979248046875 1939.190185546875 999.6395263671875 1939.190185546875 999.7874755859375 L 1939.190185546875 1004.38818359375 L 1941.922729492188 1003.183349609375 L 1941.922729492188 999.7874755859375 C 1941.922729492188 999.6392822265625 1941.9677734375 999.4976806640625 1942.05322265625 999.3779907226562 L 1947.212158203125 992.1550903320312 L 1933.900268554688 992.1550903320312 Z" stroke="none" fill="#d9d9d9"/>
      </g>
    </g>
  </g>
</svg>
