<svg xmlns="http://www.w3.org/2000/svg" width="40" height="40" viewBox="0 0 40 40">
  <g id="ic_latitude_hover" transform="translate(-1855 -160)">
    <rect id="사각형_2516" data-name="사각형 2516" width="40" height="40" rx="10" transform="translate(1855 160)" fill="#1b1c1f"/>
    <g id="그룹_4904" data-name="그룹 4904" transform="translate(-915.957 -1683.637)">
      <g id="그룹_4901" data-name="그룹 4901" transform="translate(2787.507 1855.637)">
        <path id="패스_43895" data-name="패스 43895" d="M2803.013,1871.637c-1.934,0-3.45-3.514-3.45-8s1.516-8,3.45-8,3.45,3.514,3.45,8S2804.948,1871.637,2803.013,1871.637Zm0-15.075c-1.218,0-2.575,2.906-2.575,7.075s1.357,7.075,2.575,7.075,2.575-2.906,2.575-7.075S2804.231,1856.562,2803.013,1856.562Z" transform="translate(-2799.563 -1855.637)" fill="#5d93ff" stroke="#5d93ff" stroke-width="0.2"/>
      </g>
      <g id="그룹_4902" data-name="그룹 4902" transform="translate(2782.957 1860.527)">
        <path id="패스_43896" data-name="패스 43896" d="M2790.957,1879.833c-3.878,0-8-1.09-8-3.111s4.122-3.111,8-3.111,8,1.09,8,3.111S2794.835,1879.833,2790.957,1879.833Zm0-5.346c-4.049,0-7.075,1.18-7.075,2.235s3.026,2.236,7.075,2.236,7.075-1.18,7.075-2.236S2795.006,1874.487,2790.957,1874.487Z" transform="translate(-2782.957 -1873.612)" fill="#5d93ff" stroke="#5d93ff" stroke-width="0.2"/>
      </g>
      <g id="그룹_4903" data-name="그룹 4903" transform="translate(2782.957 1855.637)">
        <path id="패스_43897" data-name="패스 43897" d="M2790.957,1871.637a8,8,0,1,1,8-8A8.009,8.009,0,0,1,2790.957,1871.637Zm0-15.075a7.075,7.075,0,1,0,7.075,7.075A7.083,7.083,0,0,0,2790.957,1856.562Z" transform="translate(-2782.957 -1855.637)" fill="#5d93ff" stroke="#5d93ff" stroke-width="0.2"/>
      </g>
    </g>
  </g>
</svg>
