<svg xmlns="http://www.w3.org/2000/svg" width="20" height="20" viewBox="0 0 20 20">
  <g id="ic_length" transform="translate(0.233)">
    <rect id="사각형_2518" data-name="사각형 2518" width="20" height="20" transform="translate(-0.233)" fill="none"/>
    <path id="패스_43856" data-name="패스 43856" d="M52.474,5.934" transform="translate(-35.166 -5.24)" fill="none" stroke="#d9d9d9" stroke-width="1.2"/>
    <path id="패스_43859" data-name="패스 43859" d="M0,0,5.406.008l.029,18.245L.029,18.245Z" transform="translate(2 5.399) rotate(-45)" fill="none" stroke="#d9d9d9" stroke-linecap="round" stroke-width="1.2"/>
    <rect id="사각형_2508" data-name="사각형 2508" width="1.687" height="0.99" transform="translate(5.83 3.968) rotate(-45)" fill="#d9d9d9"/>
    <rect id="사각형_2509" data-name="사각형 2509" width="1.687" height="0.99" transform="translate(7.234 5.367) rotate(-45)" fill="#d9d9d9"/>
    <rect id="사각형_2510" data-name="사각형 2510" width="1.687" height="0.99" transform="translate(8.639 6.767) rotate(-45)" fill="#d9d9d9"/>
    <rect id="사각형_2511" data-name="사각형 2511" width="1.687" height="0.99" transform="translate(10.043 8.166) rotate(-45)" fill="#d9d9d9"/>
    <rect id="사각형_2512" data-name="사각형 2512" width="1.687" height="0.99" transform="translate(11.448 9.566) rotate(-45)" fill="#d9d9d9"/>
    <rect id="사각형_2513" data-name="사각형 2513" width="1.687" height="0.99" transform="translate(12.852 10.965) rotate(-45)" fill="#d9d9d9"/>
    <rect id="사각형_2514" data-name="사각형 2514" width="1.687" height="0.99" transform="translate(14.256 12.364) rotate(-45)" fill="#d9d9d9"/>
    <rect id="사각형_2515" data-name="사각형 2515" width="1.687" height="0.99" transform="translate(15.665 13.764) rotate(-45)" fill="#d9d9d9"/>
  </g>
</svg>
