<svg xmlns="http://www.w3.org/2000/svg" width="40" height="40" viewBox="0 0 40 40">
  <g id="ic_map_hover" transform="translate(-1855 -160)">
    <rect id="사각형_2516" data-name="사각형 2516" width="40" height="40" rx="10" transform="translate(1855 160)" fill="#1b1c1f"/>
    <g id="그룹_4858" data-name="그룹 4858" transform="translate(1867 172)">
      <path id="패스_43861" data-name="패스 43861" d="M1932.547,1873.3a.492.492,0,0,1-.491-.491v-13.584a.491.491,0,0,1,.353-.471l5.333-1.56a.494.494,0,0,1,.275,0l5.2,1.52,5.195-1.52a.491.491,0,0,1,.629.471v13.585a.491.491,0,0,1-.353.471l-5.333,1.561a.494.494,0,0,1-.275,0l-5.2-1.521-5.2,1.521A.492.492,0,0,1,1932.547,1873.3Zm5.333-2.542a.491.491,0,0,1,.138.02l5.2,1.52,4.842-1.417v-12.562l-4.7,1.376a.494.494,0,0,1-.275,0l-5.2-1.52-4.842,1.417v12.561l4.7-1.376A.494.494,0,0,1,1937.88,1870.755Z" transform="translate(-1932.056 -1857.17)" fill="#5d93ff" stroke="#5d93ff" stroke-width="0.2"/>
      <path id="패스_43862" data-name="패스 43862" d="M1970.887,1877.346a.491.491,0,0,1-.491-.491v-13.584a.491.491,0,1,1,.982,0v13.584A.491.491,0,0,1,1970.887,1877.346Z" transform="translate(-1959.73 -1861.219)" fill="#5d93ff" stroke="#5d93ff" stroke-width="0.2"/>
      <path id="패스_43863" data-name="패스 43863" d="M1951.718,1871.737a.491.491,0,0,1-.491-.491v-13.585a.491.491,0,0,1,.982,0v13.585A.491.491,0,0,1,1951.718,1871.737Z" transform="translate(-1945.894 -1857.171)" fill="#5d93ff" stroke="#5d93ff" stroke-width="0.2"/>
    </g>
  </g>
</svg>
