<svg xmlns="http://www.w3.org/2000/svg" width="45" height="45" viewBox="0 0 45 45">
  <g id="ic_setting" transform="translate(-4523 -30)">
    <g id="그룹_1255" data-name="그룹 1255" transform="translate(2919 10)">
      <g id="사각형_532" data-name="사각형 532" transform="translate(1604 20)" fill="#282b32" stroke="#73767f" stroke-width="1">
        <rect width="45" height="45" rx="13" stroke="none"/>
        <rect x="0.5" y="0.5" width="44" height="44" rx="12.5" fill="none"/>
      </g>
      <g id="ic_menu_06" transform="translate(1615 31)">
        <rect id="사각형_1614" data-name="사각형 1614" width="24" height="24" fill="none"/>
        <path id="패스_43945" data-name="패스 43945" d="M326.625,396.309h-.551a1.712,1.712,0,0,1-1.207-2.913l.39-.39a.544.544,0,0,0,0-.767l-1.36-1.36a.543.543,0,0,0-.767,0l-.389.389a1.713,1.713,0,0,1-2.914-1.206v-.552a.542.542,0,0,0-.542-.542h-1.922a.543.543,0,0,0-.543.542v.552a1.712,1.712,0,0,1-2.913,1.206l-.39-.39a.557.557,0,0,0-.767,0l-1.36,1.36a.544.544,0,0,0,0,.767l.39.39a1.712,1.712,0,0,1-1.206,2.913h-.552a.543.543,0,0,0-.542.543v1.922a.542.542,0,0,0,.542.542h.552a1.713,1.713,0,0,1,1.206,2.914l-.39.39a.544.544,0,0,0,0,.767l1.36,1.359a.554.554,0,0,0,.766,0l.391-.39a1.683,1.683,0,0,1,1.194-.495,1.715,1.715,0,0,1,.652.129,1.7,1.7,0,0,1,1.067,1.573v.551a.543.543,0,0,0,.543.542h1.922a.542.542,0,0,0,.542-.542v-.551a1.713,1.713,0,0,1,2.914-1.207l.389.39a.555.555,0,0,0,.767,0l1.36-1.359a.545.545,0,0,0,0-.768l-.39-.389a1.713,1.713,0,0,1,1.207-2.914h.551a.542.542,0,0,0,.542-.542v-1.922A.543.543,0,0,0,326.625,396.309Zm-8.3,5.238a3.734,3.734,0,1,1,3.734-3.734A3.738,3.738,0,0,1,318.324,401.547Z" transform="translate(-306.323 -385.813)" fill="#d9d9d9"/>
      </g>
    </g>
  </g>
</svg>
