<svg xmlns="http://www.w3.org/2000/svg" width="40" height="40" viewBox="0 0 40 40">
  <g id="ic_vertiport_hover" transform="translate(-1855 -160)">
    <rect id="사각형_2516" data-name="사각형 2516" width="40" height="40" rx="10" transform="translate(1855 160)" fill="#1b1c1f"/>
    <g id="그룹_4894" data-name="그룹 4894" transform="translate(-1 -1.735)">
      <text id="V" transform="translate(1872 186)" fill="#5d93ff" font-size="12" font-family="Pretendard-ExtraBold, Pretendard" font-weight="800"><tspan x="0" y="0">V</tspan></text>
      <g id="패스_43885" data-name="패스 43885" transform="translate(1868 171.735)" fill="none">
        <path d="M8.48,0a8.48,8.48,0,0,1,8.48,8.48c0,4.683-6.8,12.05-8.48,12.05S0,13.163,0,8.48A8.48,8.48,0,0,1,8.48,0Z" stroke="none"/>
        <path d="M 8.47967529296875 1.19999885559082 C 4.465644836425781 1.19999885559082 1.199995040893555 4.46565055847168 1.199995040893555 8.479680061340332 C 1.199995040893555 10.15051937103271 2.377425193786621 12.68447971343994 4.349615097045898 15.25802993774414 C 6.14300537109375 17.5982551574707 7.87712287902832 19.04242897033691 8.47967529296875 19.30455207824707 C 9.08222770690918 19.04242897033691 10.81634521484375 17.5982551574707 12.60972595214844 15.25802993774414 C 14.5819149017334 12.68447971343994 15.75934505462646 10.15051937103271 15.75934505462646 8.479680061340332 C 15.75934505462646 4.46565055847168 12.49369525909424 1.19999885559082 8.47967529296875 1.19999885559082 M 8.47967529296875 0 C 13.16286563873291 0 16.9593448638916 3.796480178833008 16.9593448638916 8.479680061340332 C 16.9593448638916 13.16286945343018 10.16164588928223 20.52973937988281 8.47967529296875 20.52973937988281 C 6.79770565032959 20.52973937988281 -3.814697265625e-06 13.16286945343018 -3.814697265625e-06 8.479680061340332 C -3.814697265625e-06 3.796480178833008 3.796475410461426 0 8.47967529296875 0 Z" stroke="none" fill="#5d93ff"/>
      </g>
    </g>
  </g>
</svg>
