<svg xmlns="http://www.w3.org/2000/svg" width="40" height="40" viewBox="0 0 40 40">
  <g id="ic_wp_pressed" transform="translate(-1855 -160)">
    <rect id="사각형_2516" data-name="사각형 2516" width="40" height="40" rx="10" transform="translate(1855 160)" fill="#5d93ff"/>
    <g id="vector" transform="translate(1862.751 167.757)">
      <path id="패스_43889" data-name="패스 43889" d="M12.53,9.47a.751.751,0,0,0-1.06,0l-3,3A2.741,2.741,0,0,0,8,15.62l1,2A1.75,1.75,0,0,0,8.25,19v1A1.76,1.76,0,0,0,10,21.75h4A1.76,1.76,0,0,0,15.75,20V19A1.75,1.75,0,0,0,15,17.6l1-2a2.74,2.74,0,0,0-.52-3.17Zm-3,4,1.7-1.7V15a.75.75,0,0,0,1.5,0V11.81l1.7,1.7A1.231,1.231,0,0,1,14.68,15l-1.14,2.3H10.46L9.32,15a1.23,1.23,0,0,1,.23-1.49ZM14.25,20a.25.25,0,0,1-.25.25H10A.25.25,0,0,1,9.75,20V19a.25.25,0,0,1,.25-.25h4a.25.25,0,0,1,.25.25Z" fill="#fff"/>
      <path id="패스_43890" data-name="패스 43890" d="M19,6.25a2.706,2.706,0,0,0-1.13.25,9.356,9.356,0,0,0-3.15-1.76,2.73,2.73,0,0,0-5.44,0,9.323,9.323,0,0,0-3.1,1.8A2.75,2.75,0,1,0,7.75,9a2.673,2.673,0,0,0-.44-1.48,7.548,7.548,0,0,1,2.24-1.3,2.73,2.73,0,0,0,4.89,0A7.607,7.607,0,0,1,16.7,7.5,2.75,2.75,0,1,0,19,6.25Zm-14,4A1.25,1.25,0,1,1,6.25,9,1.25,1.25,0,0,1,5,10.25Zm7-4A1.25,1.25,0,1,1,13.25,5,1.25,1.25,0,0,1,12,6.25Zm7,4A1.25,1.25,0,1,1,20.25,9,1.25,1.25,0,0,1,19,10.25Z" fill="#fff"/>
    </g>
  </g>
</svg>
