<svg xmlns="http://www.w3.org/2000/svg" width="147" height="38" viewBox="0 0 147 38">
  <g id="logo" transform="translate(-260 -36)">
    <g id="그룹_1248" data-name="그룹 1248" transform="translate(260 36)">
      <g id="그룹_1247" data-name="그룹 1247">
        <path id="패스_39045" data-name="패스 39045" d="M462.626,491.148l6.638-8.159h-3.62a4.465,4.465,0,0,0-3.725,1.647l-3.487,4.294v-11.8h-3.5a1.5,1.5,0,0,0-1.5,1.5v22.014h3.5a1.5,1.5,0,0,0,1.5-1.493v-5.858l2.833,3.484,2.42,2.969a2.245,2.245,0,0,0,1.782.9h4.891l-3.164-3.882Zm15.334,5.342a1.348,1.348,0,0,1-1.34-1.346V477.131h-3.506a1.5,1.5,0,0,0-1.5,1.494v17.457a4.351,4.351,0,0,0,4.566,4.562h3.847a1.5,1.5,0,0,0,1.5-1.493V496.49Z" transform="translate(-453.433 -477.131)" fill="#fff"/>
        <path id="패스_39046" data-name="패스 39046" d="M458.907,488.329l.006-.005c-.006,0-.006,0-.01.005Zm23.342-6.646-.307.333c-.017,0-.955.962-3.65.962H465.554a4.254,4.254,0,0,0-3.683,1.707l-.4.493c-.01.01-.016.019-.026.029l-2.531,3.117a5.854,5.854,0,0,1,3.463-1.112h15.916c1.861,0,3.633-.535,3.9-1.862a1.292,1.292,0,0,0,.055-.346Z" transform="translate(-453.433 -477.131)" fill="#e50019"/>
      </g>
    </g>
    <path id="패스_43949" data-name="패스 43949" d="M.854-15.015H6.323V0H9.5V-15.015h5.444v-2.661H.854Zm15.052-2.661V0h3.076V-12.207h.146L24.037-.049h2.271l4.907-12.109h.171V0h3.052V-17.676H30.531L25.282-4.834h-.22L19.813-17.676Zm29.9,4.858h3.052c-.049-2.991-2.6-5.1-6.348-5.1-3.723,0-6.494,2.075-6.494,5.2,0,2.539,1.807,4,4.712,4.761l2,.513c1.917.488,3.186,1.074,3.2,2.466-.012,1.514-1.453,2.527-3.54,2.539C40.37-2.454,38.82-3.357,38.674-5.2H35.549C35.683-1.709,38.3.269,42.409.269c4.236,0,6.689-2.124,6.689-5.225,0-3.076-2.539-4.468-5.176-5.078l-1.66-.439c-1.465-.342-3.04-.952-3.027-2.441.012-1.331,1.208-2.307,3.223-2.295C44.362-15.222,45.644-14.343,45.8-12.817Z" transform="translate(292.971 59)" fill="#e50019"/>
    <path id="패스_43950" data-name="패스 43950" d="M.342-6.006H2.528V0H3.8V-6.006H5.973V-7.07H.342ZM6.969,0H8.238V-2.588H9.565L10.951,0h1.415L10.839-2.8a2.025,2.025,0,0,0,1.274-2.012A2.191,2.191,0,0,0,9.624-7.07H6.969ZM8.238-3.652V-6.006H9.428c.956,0,1.386.439,1.386,1.191s-.429,1.167-1.386,1.162ZM14.1,0l.586-1.748h2.66L17.939,0H19.3L16.8-7.07H15.236L12.747,0Zm.927-2.773.956-2.852h.059l.961,2.852ZM20.135,0H21.4V-3.008h2.948V-4.072H21.4V-6.006h3.26V-7.07H20.135Zm5.6,0h1.269V-3.008h2.948V-4.072H27.006V-6.006h3.26V-7.07H25.737Zm6.871-7.07H31.339V0h1.269Zm6.08,2.383h1.279a2.818,2.818,0,0,0-2.987-2.48c-1.85,0-3.235,1.348-3.231,3.633S35.117.1,36.981.1a2.863,2.863,0,0,0,2.987-2.441H38.689A1.619,1.619,0,0,1,37-1.045c-1.152,0-1.976-.864-1.972-2.49,0-1.6.815-2.49,1.972-2.49A1.607,1.607,0,0,1,38.689-4.687ZM43.432-7.07V0h1.23V-4.883h.059L46.682-.02h.908l1.962-4.844h.068V0h1.22V-7.07H49.278l-2.1,5.137h-.088l-2.1-5.137ZM58.453-3.535c0-2.285-1.391-3.633-3.24-3.633s-3.245,1.348-3.24,3.633S53.353.1,55.212.1,58.458-1.25,58.453-3.535Zm-5.2,0c0-1.616.81-2.49,1.962-2.49s1.967.874,1.962,2.49-.805,2.49-1.962,2.49S53.246-1.919,53.251-3.535ZM65.392-7.07H64.133v4.834h-.068L60.736-7.07H59.585V0h1.269V-4.834h.059L64.26,0h1.132Zm2.577,0H66.7V0h1.269Zm1.005,1.064H71.16V0h1.269V-6.006h2.176V-7.07H68.974ZM81.6-3.535c0-2.285-1.391-3.633-3.24-3.633s-3.245,1.348-3.24,3.633S76.5.1,78.358.1,81.6-1.25,81.6-3.535Zm-5.2,0c0-1.616.81-2.49,1.962-2.49s1.967.874,1.962,2.49-.805,2.49-1.962,2.49S76.391-1.919,76.4-3.535ZM82.731,0H84V-2.588h1.327L86.713,0h1.415L86.6-2.8a2.025,2.025,0,0,0,1.274-2.012A2.191,2.191,0,0,0,85.385-7.07H82.731ZM84-3.652V-6.006H85.19c.956,0,1.386.439,1.386,1.191s-.429,1.167-1.386,1.162ZM90.236-7.07H88.967V0h1.269Zm7.125,0H96.1v4.834h-.068L92.705-7.07H91.554V0h1.269V-4.834h.059L96.229,0h1.132ZM103.4-4.814h1.3a2.857,2.857,0,0,0-2.977-2.354c-1.85,0-3.235,1.362-3.231,3.633,0,2.241,1.318,3.633,3.27,3.633a2.808,2.808,0,0,0,3-2.949V-3.7h-2.869V-2.7h1.64a1.614,1.614,0,0,1-1.767,1.65c-1.181,0-2-.894-1.991-2.5s.825-2.48,1.962-2.48A1.631,1.631,0,0,1,103.4-4.814Zm8.725-.312h1.22c-.02-1.2-1.039-2.041-2.538-2.041s-2.6.83-2.6,2.08c0,1.016.722,1.6,1.884,1.9l.8.205c.766.2,1.274.43,1.279.986,0,.605-.581,1.011-1.415,1.016-.805,0-1.425-.366-1.484-1.1h-1.249c.054,1.4,1.1,2.188,2.743,2.188,1.693,0,2.674-.85,2.674-2.09s-1.015-1.787-2.069-2.031l-.664-.176c-.586-.137-1.215-.381-1.21-.977,0-.532.483-.923,1.288-.918C111.552-6.089,112.064-5.737,112.128-5.127Zm1.884-1.943,2.577,4.424V0h1.269V-2.646l2.567-4.424h-1.435l-1.737,3.125h-.068L115.446-7.07Zm11.078,1.943h1.22c-.02-1.2-1.039-2.041-2.538-2.041s-2.6.83-2.6,2.08c0,1.016.722,1.6,1.884,1.9l.8.205c.766.2,1.274.43,1.279.986,0,.605-.581,1.011-1.415,1.016-.805,0-1.425-.366-1.484-1.1H120.99c.054,1.4,1.1,2.188,2.743,2.188,1.693,0,2.674-.85,2.674-2.09s-1.015-1.787-2.069-2.031l-.664-.176c-.586-.137-1.215-.381-1.21-.977,0-.532.483-.923,1.288-.918C124.513-6.089,125.025-5.737,125.089-5.127Zm2.059-.879h2.186V0H130.6V-6.006h2.176V-7.07h-5.632ZM133.775,0h4.616V-1.074h-3.348V-3.008h3.084V-4.072h-3.084V-6.006h3.328V-7.07h-4.6Zm5.817-7.07V0h1.23V-4.883h.059L142.842-.02h.908l1.962-4.844h.068V0H147V-7.07h-1.562l-2.1,5.137h-.088l-2.1-5.137Z" transform="translate(260 73.893)" fill="#d9d9d9"/>
  </g>
</svg>
