<svg xmlns="http://www.w3.org/2000/svg" xmlns:xlink="http://www.w3.org/1999/xlink" width="30" height="30" viewBox="0 0 30 30">
  <defs>
    <clipPath id="clip-path">
      <rect id="사각형_2619" data-name="사각형 2619" width="14" height="18" transform="translate(0 0)" fill="#1b1c1f"/>
    </clipPath>
  </defs>
  <g id="ic_antenna_2" transform="translate(-691 -464)">
    <g id="타원_231" data-name="타원 231" transform="translate(691 464)" fill="#9d9ea3" stroke="#fff" stroke-width="1">
      <circle cx="15" cy="15" r="15" stroke="none"/>
      <circle cx="15" cy="15" r="14.5" fill="none"/>
    </g>
    <g id="그룹_5209" data-name="그룹 5209" transform="translate(430 363.725)">
      <path id="패스_43966" data-name="패스 43966" d="M323.689,168a1.638,1.638,0,1,0-2.543,0l-3.456,11.741a.522.522,0,1,0,1,.295l.113-.385h7.225l.113.385a.522.522,0,0,0,1-.295Zm-2.544,3.7h1.376l-1.769,1.334Zm1.272-3.094a1.64,1.64,0,0,0,.35-.038l.615,2.087h-1.929l.615-2.087a1.641,1.641,0,0,0,.35.038Zm1.375,3.443.539,1.832h-2.967Zm-1.375-5.674a.594.594,0,1,1-.594.594.594.594,0,0,1,.594-.594Zm-2.221,8.55h3.2l-4.058,2.9Zm-.153,3.681,4.692-3.352.987,3.352Zm0,0" transform="translate(-46.41 -56.315)" fill="#1b1c1f"/>
      <path id="패스_43967" data-name="패스 43967" d="M317.51,144.8a.522.522,0,0,0,.738-.738,2.77,2.77,0,0,1,0-3.913.522.522,0,0,0-.738-.738,3.816,3.816,0,0,0,0,5.39Zm0,0" transform="translate(-45.196 -31.455)" fill="#1b1c1f"/>
      <g id="그룹_5166" data-name="그룹 5166" transform="translate(269 106.276)">
        <g id="그룹_5165" data-name="그룹 5165" transform="translate(0 0)" clip-path="url(#clip-path)">
          <path id="패스_43968" data-name="패스 43968" d="M480.537,144.8a.522.522,0,0,0,.738,0,3.816,3.816,0,0,0,0-5.39.522.522,0,1,0-.738.738,2.77,2.77,0,0,1,0,3.913.522.522,0,0,0,0,.738Zm0,0" transform="translate(-470.574 -137.731)" fill="#1b1c1f"/>
          <path id="패스_43969" data-name="패스 43969" d="M272.254,114.143a4.937,4.937,0,0,1,0-6.975.522.522,0,1,0-.738-.738,5.982,5.982,0,0,0,0,8.451.522.522,0,0,0,.738-.738Zm0,0" transform="translate(-269.732 -106.277)" fill="#1b1c1f"/>
          <path id="패스_43970" data-name="패스 43970" d="M514.262,106.43a.522.522,0,0,0-.738.738,4.937,4.937,0,0,1,0,6.975.522.522,0,1,0,.738.738,5.982,5.982,0,0,0,0-8.451Zm0,0" transform="translate(-502.03 -106.277)" fill="#1b1c1f"/>
        </g>
      </g>
    </g>
  </g>
</svg>
