<svg xmlns="http://www.w3.org/2000/svg" width="9.176" height="23.365" viewBox="0 0 9.176 23.365">
  <g id="ic_obstacle" transform="translate(-400.588 -362.306)">
    <path id="패스_44002" data-name="패스 44002" d="M405.187,365.858a.5.5,0,0,0,.5-.5v-2.552a.5.5,0,0,0-1,0v2.552A.5.5,0,0,0,405.187,365.858Z" fill="#fff"/>
    <path id="패스_44003" data-name="패스 44003" d="M405.82,376.632a.713.713,0,0,0-.133-.181v-7.2a.5.5,0,1,0-1,0v7.1a.728.728,0,0,0-.313.331l-3.376,7.6a.75.75,0,0,0,1.371.61l2.318-5.22v5.5a.5.5,0,0,0,1,0V379.9l2.323,5a.75.75,0,0,0,1.361-.632Z" fill="#fff"/>
    <path id="패스_44004" data-name="패스 44004" d="M407.014,366.232a.747.747,0,0,0,.53-.219l2-2a.75.75,0,1,0-1.06-1.061l-2,2a.749.749,0,0,0,.53,1.28Z" fill="#fff"/>
    <path id="패스_44005" data-name="패스 44005" d="M403.338,366.232a.749.749,0,0,0,.53-1.28l-2-2a.75.75,0,0,0-1.06,1.061l2,2A.747.747,0,0,0,403.338,366.232Z" fill="#fff"/>
    <path id="패스_44006" data-name="패스 44006" d="M401.6,370.03a.747.747,0,0,0,.53-.219l2-2a.75.75,0,1,0-1.06-1.061l-2,2a.749.749,0,0,0,.53,1.28Z" fill="#fff"/>
    <path id="패스_44007" data-name="패스 44007" d="M407.544,366.75a.75.75,0,0,0-1.06,1.061l2,2a.75.75,0,1,0,1.06-1.061Z" fill="#fff"/>
  </g>
</svg>
